<svg xmlns="http://www.w3.org/2000/svg" viewBox="0 0 1600 900" width="1600" height="900" role="img" aria-label="Placeholder still for a consumer product commercial">
  <defs>
    <radialGradient id="p6key" cx="44%" cy="22%" r="82%">
      <stop offset="0" stop-color="#2C2A29"/>
      <stop offset=".55" stop-color="#191817"/>
      <stop offset="1" stop-color="#0D0C0C"/>
    </radialGradient>
    <linearGradient id="p6form" x1="0" y1="0" x2=".85" y2="1">
      <stop offset="0" stop-color="#5E574F"/>
      <stop offset=".48" stop-color="#2C2926"/>
      <stop offset="1" stop-color="#161514"/>
    </linearGradient>
    <linearGradient id="p6floor" x1="0" y1="0" x2="0" y2="1">
      <stop offset="0" stop-color="#000" stop-opacity="0"/>
      <stop offset="1" stop-color="#000" stop-opacity=".72"/>
    </linearGradient>
    <filter id="p6blur"><feGaussianBlur stdDeviation="30"/></filter>
    <filter id="p6grain" x="0" y="0" width="100%" height="100%">
      <feTurbulence type="fractalNoise" baseFrequency=".85" numOctaves="1" stitchTiles="stitch"/>
      <feColorMatrix type="saturate" values="0"/>
    </filter>
  </defs>

  <rect width="1600" height="900" fill="url(#p6key)"/>
  <ellipse cx="800" cy="656" rx="316" ry="44" fill="#000" opacity=".6" filter="url(#p6blur)"/>

  <g>
    <path d="M560 372 l240 -110 240 110 v206 l-240 110 -240 -110 z" fill="url(#p6form)"/>
    <path d="M560 372 l240 110 240 -110 -240 -110 z" fill="#4C453D"/>
    <path d="M800 482 v316 l-240 -110 v-316 z" fill="#1A1817" opacity=".55"/>
    <path d="M560 372 l240 110 240 -110" fill="none" stroke="#C4A06A" stroke-opacity=".38" stroke-width="5"/>
    <path d="M800 482 v206" fill="none" stroke="#F2EEE7" stroke-opacity=".1" stroke-width="4"/>
  </g>

  <rect width="1600" height="900" fill="url(#p6floor)"/>
  <rect width="1600" height="900" filter="url(#p6grain)" opacity=".05"/>

  <g font-family="Archivo, 'Helvetica Neue', Arial, sans-serif" fill="#F2EEE7">
    <text x="72" y="806" font-size="40" font-weight="600" letter-spacing="10">CONSUMER</text>
    <text x="72" y="846" font-size="23" font-weight="400" letter-spacing="2" fill="#8E877F">Placeholder still. Replace this file.</text>
  </g>
</svg>
